<?xml version="1.0" encoding="UTF-8"?>
<svg id="Layer_2" data-name="Layer 2" xmlns="http://www.w3.org/2000/svg" viewBox="0 0 170.68 38.54">
  <defs>
    <style>
      .cls-1 {
        fill: #203419;
      }
    </style>
  </defs>
  <g id="Layer_1-2" data-name="Layer 1">
    <g>
      <path class="cls-1" d="M45.13,34.77v-4.84l10.31-10.65h-9.89v-4.84h16.9v4.84l-10.35,10.65h10.77v4.84h-17.74Z"/>
      <path class="cls-1" d="M66.03,34.77V14.43h5.51v2.74h.13c.31-.51.74-1,1.29-1.47.56-.48,1.23-.88,2.02-1.2.79-.32,1.65-.48,2.57-.48h.88v5.94c-.22-.06-.49-.11-.81-.17-.32-.06-.65-.08-.98-.08-.92,0-1.75.23-2.5.69-.75.46-1.35,1.12-1.79,1.98-.45.86-.67,1.83-.67,2.93v9.47h-5.63Z"/>
      <path class="cls-1" d="M90.28,35.23c-2.03,0-3.88-.46-5.53-1.39-1.66-.93-2.95-2.21-3.88-3.85-.93-1.64-1.4-3.43-1.4-5.37s.47-3.76,1.4-5.39c.93-1.63,2.23-2.91,3.88-3.85,1.66-.94,3.5-1.41,5.53-1.41s3.87.47,5.53,1.41c1.66.94,2.95,2.23,3.88,3.85.93,1.63,1.4,3.43,1.4,5.39s-.47,3.73-1.4,5.37c-.93,1.64-2.23,2.93-3.88,3.85-1.66.93-3.5,1.39-5.53,1.39ZM90.28,30.13c.97,0,1.85-.24,2.63-.72.78-.48,1.39-1.14,1.84-1.98.44-.84.67-1.78.67-2.82s-.22-2.01-.67-2.84c-.45-.83-1.06-1.48-1.84-1.96-.78-.48-1.66-.72-2.63-.72s-1.85.24-2.63.72c-.78.48-1.39,1.13-1.84,1.96-.45.83-.67,1.78-.67,2.84s.22,1.98.67,2.82c.44.84,1.06,1.5,1.84,1.98.78.48,1.66.72,2.63.72Z"/>
      <path class="cls-1" d="M116.35,35.19c-1.03,0-1.99-.17-2.88-.51-.89-.34-1.65-.75-2.27-1.24-.63-.49-1.11-1.02-1.44-1.58h-.08v2.91h-5.51V5.29h5.63v11.92h.08c.31-.53.77-1.04,1.4-1.52.63-.48,1.38-.88,2.25-1.2.88-.32,1.82-.48,2.82-.48,1.64,0,3.16.46,4.55,1.37,1.39.91,2.51,2.17,3.36,3.77.85,1.6,1.27,3.43,1.27,5.47s-.42,3.84-1.27,5.45c-.85,1.61-1.97,2.87-3.36,3.77-1.39.9-2.91,1.35-4.55,1.35ZM114.8,30.01c.92,0,1.75-.23,2.5-.69.75-.46,1.35-1.11,1.79-1.94.44-.83.67-1.75.67-2.76s-.22-1.96-.67-2.78c-.45-.81-1.04-1.46-1.79-1.94-.75-.48-1.59-.72-2.5-.72s-1.79.24-2.55.72c-.75.48-1.35,1.12-1.79,1.94-.45.81-.67,1.74-.67,2.78s.22,1.93.67,2.76c.44.83,1.04,1.47,1.79,1.94.75.46,1.6.69,2.55.69Z"/>
      <path class="cls-1" d="M161,35.22c-2.09.02-3.98-.42-5.67-1.33-1.69-.91-3.01-2.17-3.96-3.79-.95-1.62-1.43-3.41-1.46-5.37-.02-1.96.43-3.76,1.34-5.38.91-1.62,2.17-2.92,3.78-3.89,1.6-.97,3.38-1.47,5.33-1.49s3.7.4,5.27,1.25c1.57.85,2.8,2.03,3.69,3.54.89,1.51,1.35,3.19,1.37,5.04,0,.48-.01.92-.05,1.33-.04.41-.1.72-.18.95l-14.77.16c.12.78.43,1.5.94,2.14.51.64,1.17,1.15,1.98,1.54.81.38,1.72.57,2.72.56,1.11-.01,2.12-.23,3.02-.64.9-.42,1.69-.94,2.38-1.56l2.83,3.46c-.77.91-1.91,1.71-3.42,2.42-1.51.7-3.22,1.07-5.14,1.09ZM164.99,22.71c-.15-.87-.43-1.61-.84-2.22-.41-.61-.94-1.09-1.58-1.44-.64-.34-1.37-.51-2.18-.5-.86,0-1.63.19-2.29.55-.66.36-1.21.85-1.63,1.47-.42.62-.74,1.37-.96,2.24l9.47-.1Z"/>
      <path class="cls-1" d="M138.32,35.23c-2.09.01-3.98-.44-5.66-1.35-1.69-.92-3.01-2.18-3.95-3.81-.94-1.62-1.42-3.42-1.43-5.38-.01-1.96.44-3.76,1.36-5.38.92-1.62,2.19-2.91,3.79-3.88,1.61-.96,3.39-1.45,5.33-1.47,1.95-.01,3.7.41,5.27,1.27,1.56.86,2.79,2.05,3.67,3.56.89,1.51,1.34,3.19,1.35,5.04,0,.48-.02.92-.05,1.33-.04.41-.1.72-.18.95l-14.77.09c.12.79.43,1.5.93,2.14.51.64,1.16,1.16,1.97,1.55.81.39,1.71.58,2.72.57,1.11,0,2.12-.22,3.02-.63.9-.41,1.7-.93,2.39-1.55l2.82,3.48c-.77.9-1.92,1.7-3.43,2.4-1.51.7-3.23,1.05-5.15,1.06ZM142.37,22.74c-.15-.87-.42-1.61-.83-2.23-.41-.61-.93-1.1-1.57-1.44-.64-.35-1.37-.52-2.17-.51-.86,0-1.63.19-2.29.54-.67.36-1.21.84-1.64,1.46-.43.62-.75,1.37-.97,2.24l9.47-.06Z"/>
    </g>
    <g>
      <path class="cls-1" d="M35.79,23.63c.35,1.83.28,3.63-.47,5.28-.42.92-.85,1.79-1.54,2.53-1.97,2.12-3.45,2.4-6.01,3.26-.25.08-.59.1-.81-.02-1.16-.63-2.05-1.53-2.95-2.48-1.11-1.17-1.92-2.45-2.59-3.96-1.12-2.52-1.45-5.3-1.12-8.03.09-.72.15-1.38.41-2.09l3.84-1.31.75-6.48c.04-.35.66-.49.93-.41.35.11.56.46.52.88l-.42,3.67c-.07.61-.19,1.31-.11,1.91.22.23.92.19,1.09-.11.32-.54.51-1.1.77-1.66l1.69-3.65c.18-.39.61-.51.94-.4.27.09.63.53.46.9l-2.22,4.96c-.06.13.15.27.27.3,1.69.4,3.17,1.26,4.33,2.56,1.11,1.24,1.91,2.64,2.23,4.34Z"/>
      <path class="cls-1" d="M18.38,17.72l-15.42.28c-.84.02-1.61-.22-2.17-.78-.89-.89-.94-2.1-.58-3.24l1.23-3.91.96-3.07c.28-.9.9-1.52,1.68-1.82,1.59-.61,2.59.3,3.69,1.21l1.62,1.34,5.2,4.27,3.9,3.26c.35.29.7.55.85,1.01.09.28.07.75-.13.97-.16.17-.42.49-.83.49Z"/>
      <path class="cls-1" d="M12.31,38.2c-2.05-.5-4.25-2.12-5.24-3.98l-4.02-.28c-.37-.03-.74,0-1.09-.16.18-.4.51-.55.8-.8l2.98-2.6c-.21-2.95.88-5.69,3.13-7.6.08-.06.18-.1.23-.09.08.02.15.16.14.28-.07.87-.2,1.71-.16,2.59.06,1.26.13,2.48.44,3.71.18.71.34,1.36.62,2.02.44,1.05.88,2.04,1.52,2.98.95,1.39,1.95,2.65,3.26,3.71.15.12.32.37.2.53-.93.11-1.87-.08-2.81-.31Z"/>
      <path class="cls-1" d="M23.33,36.14c-1.1.43-2.11.72-3.19,1.08-.22.07-.61.16-.83.03-2.05-1.3-3.65-3.07-4.87-5.17-1.18-2.04-1.76-4.25-1.89-6.61-.08-1.46.11-2.88.38-4.32.03-.18.19-.47.36-.53,1.23-.41,2.37-.83,3.61-1.17.08.31.03.58,0,.87-.54,4.97.47,9.38,3.81,13.21.57.66,1.06,1.29,1.76,1.8.3.22.57.44.86.81Z"/>
      <path class="cls-1" d="M17.76,12.47l-2.15-1.78-4.52-3.75c-.98-.81-1.16-2.29-.25-3.2.51-.51,1.16-.81,1.78-1.17l3.46-2c1.12-.65,2.05-.92,3.13.06.32.29.51.56.59,1.02l2.08,12.13c.05.32-.09.6-.23.76-.21.25-.56.27-.89.2-.49-.12-.83-.53-1.21-.84l-1.79-1.43Z"/>
    </g>
  </g>
</svg>
