<?xml version="1.0" encoding="UTF-8"?>
<svg id="Layer_2" data-name="Layer 2" xmlns="http://www.w3.org/2000/svg" viewBox="0 0 388.24 415.69">
  <defs>
    <style>
      .cls-1 {
        fill: #0c1408;
      }
    </style>
  </defs>
  <g id="Layer_1-2" data-name="Layer 1">
    <g>
      <path class="cls-1" d="M386.06,254.92c3.78,19.77,2.97,39.12-5.08,56.96-4.5,9.97-9.17,19.28-16.56,27.26-21.2,22.9-37.26,25.89-64.82,35.21-2.7.91-6.34,1.11-8.77-.21-12.49-6.82-22.09-16.53-31.78-26.73-12.02-12.66-20.74-26.47-27.98-42.68-12.11-27.14-15.65-57.21-12.03-86.63.96-7.79,1.64-14.9,4.43-22.51l41.43-14.14,8.05-69.85c.44-3.79,7.17-5.32,10-4.46,3.74,1.14,6.07,4.95,5.56,9.44l-4.49,39.58c-.74,6.53-2.06,14.15-1.15,20.63,2.32,2.47,9.9,2.01,11.81-1.18,3.5-5.84,5.45-11.84,8.28-17.95l18.22-39.35c1.94-4.18,6.57-5.5,10.16-4.28,2.96,1.01,6.74,5.67,4.95,9.68l-23.98,53.54c-.63,1.4,1.64,2.88,2.93,3.19,18.24,4.3,34.21,13.64,46.72,27.66,11.96,13.41,20.6,28.53,24.1,46.8Z"/>
      <path class="cls-1" d="M198.3,191.15l-166.33,3.07c-9.05.17-17.35-2.34-23.44-8.42-9.59-9.58-10.16-22.63-6.28-34.91l13.3-42.15,10.41-33.14c3.03-9.66,9.67-16.44,18.09-19.67,17.16-6.58,27.96,3.21,39.85,13.02l17.46,14.4,56.12,46.07,42.09,35.11c3.74,3.12,7.54,5.91,9.12,10.85.96,3,.74,8.08-1.42,10.44-1.69,1.85-4.48,5.24-8.95,5.32Z"/>
      <path class="cls-1" d="M132.76,412.03c-22.07-5.36-45.79-22.87-56.48-42.89l-43.33-2.98c-4.04-.28-7.94-.04-11.75-1.75,1.91-4.3,5.5-5.99,8.58-8.67l32.13-28.01c-2.28-31.77,9.51-61.37,33.71-82,.81-.69,1.91-1.12,2.48-.97.84.21,1.6,1.74,1.5,3-.73,9.44-2.19,18.45-1.71,27.95.68,13.59,1.39,26.76,4.74,39.98,1.94,7.65,3.65,14.7,6.66,21.79,4.78,11.27,9.48,21.97,16.43,32.14,10.23,14.98,20.99,28.61,35.19,40.02,1.59,1.28,3.48,3.97,2.21,5.71-10.06,1.19-20.16-.83-30.36-3.31Z"/>
      <path class="cls-1" d="M251.64,389.87c-11.86,4.67-22.77,7.76-34.46,11.66-2.37.79-6.59,1.77-8.95.28-22.08-13.97-39.41-33.15-52.57-55.77-12.78-21.98-19.03-45.84-20.34-71.29-.81-15.79,1.18-31.11,4.06-46.57.37-1.97,2.01-5.11,3.88-5.74,13.22-4.43,25.61-8.96,38.98-12.66.81,3.33.36,6.26.01,9.43-5.79,53.66,5.06,101.13,41.13,142.47,6.19,7.1,11.45,13.87,19.02,19.47,3.25,2.4,6.18,4.73,9.24,8.72Z"/>
      <path class="cls-1" d="M191.59,134.55l-23.18-19.15-48.81-40.42c-10.61-8.79-12.52-24.68-2.7-34.47,5.55-5.53,12.53-8.75,19.24-12.63l37.36-21.59c12.05-6.96,22.15-9.94,33.81.61,3.44,3.11,5.55,6,6.4,11.01l22.39,130.83c.58,3.41-1,6.47-2.49,8.23-2.25,2.66-6.06,2.94-9.6,2.11-5.32-1.25-8.9-5.75-13.06-9.07l-19.36-15.46Z"/>
    </g>
  </g>
</svg>