<?xml version="1.0" encoding="UTF-8"?>
<svg id="Layer_1" data-name="Layer 1" xmlns="http://www.w3.org/2000/svg" viewBox="0 0 2993.52 2999.71">
  <defs>
    <style>
      .cls-1 {
        fill: #fff;
      }

      .cls-2 {
        fill: #a6d16f;
      }
    </style>
  </defs>
  <rect class="cls-2" width="2993.52" height="2999.71"/>
  <g>
    <path class="cls-1" d="M1194.12,2835.29v-23.43l49.88-51.55h-47.86v-23.43h81.78v23.43l-50.08,51.55h52.1v23.43h-85.82Z"/>
    <path class="cls-1" d="M1295.23,2835.29v-98.41h26.66v13.24h.61c1.48-2.45,3.57-4.82,6.26-7.13,2.69-2.31,5.96-4.24,9.79-5.81,3.84-1.56,7.98-2.34,12.42-2.34h4.24v28.73c-1.08-.27-2.39-.54-3.94-.82-1.55-.27-3.13-.41-4.75-.41-4.44,0-8.48,1.12-12.12,3.36-3.64,2.24-6.53,5.43-8.68,9.58-2.16,4.14-3.23,8.86-3.23,14.16v45.84h-27.26Z"/>
    <path class="cls-1" d="M1412.53,2837.53c-9.83,0-18.75-2.24-26.76-6.72-8.01-4.48-14.27-10.7-18.78-18.64-4.51-7.95-6.76-16.6-6.76-25.98s2.25-18.2,6.76-26.08c4.51-7.88,10.77-14.09,18.78-18.64,8.01-4.55,16.93-6.82,26.76-6.82s18.74,2.28,26.76,6.82c8.01,4.55,14.27,10.77,18.78,18.64,4.51,7.88,6.76,16.57,6.76,26.08s-2.26,18.03-6.76,25.98c-4.51,7.95-10.77,14.16-18.78,18.64-8.01,4.48-16.93,6.72-26.76,6.72ZM1412.53,2812.88c4.71,0,8.95-1.15,12.72-3.46,3.77-2.31,6.73-5.5,8.88-9.58,2.15-4.07,3.23-8.62,3.23-13.65s-1.08-9.75-3.23-13.75c-2.16-4-5.12-7.16-8.88-9.47-3.77-2.31-8.01-3.46-12.72-3.46s-8.95,1.16-12.72,3.46c-3.77,2.31-6.73,5.47-8.89,9.47-2.16,4.01-3.23,8.59-3.23,13.75s1.08,9.58,3.23,13.65c2.15,4.07,5.11,7.27,8.89,9.58,3.77,2.31,8.01,3.46,12.72,3.46Z"/>
    <path class="cls-1" d="M1538.68,2837.33c-4.98,0-9.63-.82-13.93-2.45-4.31-1.63-7.98-3.63-11.01-6.01-3.03-2.38-5.35-4.92-6.97-7.64h-.4v14.06h-26.66v-142.62h27.26v57.66h.4c1.48-2.58,3.74-5.02,6.76-7.33,3.03-2.31,6.66-4.24,10.9-5.81,4.24-1.56,8.78-2.34,13.63-2.34,7.94,0,15.28,2.21,22.01,6.62,6.73,4.42,12.15,10.49,16.26,18.24,4.1,7.74,6.16,16.57,6.16,26.49s-2.05,18.57-6.16,26.38c-4.11,7.81-9.53,13.89-16.26,18.24-6.73,4.35-14.07,6.52-22.01,6.52ZM1531.21,2812.27c4.44,0,8.48-1.12,12.12-3.36,3.63-2.24,6.53-5.36,8.68-9.37,2.15-4,3.23-8.46,3.23-13.34s-1.08-9.51-3.23-13.45c-2.16-3.94-5.05-7.06-8.68-9.37-3.64-2.31-7.67-3.46-12.12-3.46s-8.68,1.16-12.32,3.46c-3.64,2.31-6.53,5.43-8.68,9.37-2.16,3.94-3.23,8.42-3.23,13.45s1.08,9.34,3.23,13.34c2.15,4.01,5.05,7.13,8.68,9.37,3.63,2.24,7.74,3.36,12.32,3.36Z"/>
    <path class="cls-1" d="M1754.7,2837.5c-10.1.11-19.24-2.03-27.43-6.43-8.19-4.39-14.59-10.51-19.18-18.34-4.6-7.83-6.94-16.5-7.04-26-.1-9.51,2.06-18.19,6.48-26.05,4.42-7.86,10.52-14.14,18.28-18.84,7.76-4.7,16.35-7.1,25.77-7.21,9.42-.1,17.92,1.91,25.51,6.04,7.58,4.13,13.54,9.84,17.85,17.13,4.32,7.29,6.53,15.42,6.62,24.38.02,2.31-.05,4.45-.23,6.42-.18,1.97-.47,3.5-.86,4.59l-71.48.77c.58,3.8,2.1,7.24,4.55,10.34,2.46,3.1,5.65,5.58,9.57,7.44,3.92,1.86,8.31,2.76,13.16,2.71,5.38-.06,10.25-1.09,14.61-3.11,4.35-2.01,8.2-4.54,11.53-7.56l13.71,16.76c-3.72,4.39-9.24,8.28-16.54,11.69-7.3,3.41-15.6,5.16-24.88,5.26ZM1774.04,2776.98c-.72-4.2-2.07-7.79-4.05-10.75-1.99-2.96-4.53-5.28-7.65-6.95-3.12-1.66-6.62-2.48-10.53-2.43-4.17.04-7.87.93-11.08,2.67-3.21,1.74-5.85,4.11-7.9,7.11-2.06,3.01-3.6,6.63-4.63,10.85l45.84-.49Z"/>
    <path class="cls-1" d="M1644.99,2837.51c-10.1.06-19.23-2.12-27.4-6.55-8.17-4.43-14.54-10.57-19.1-18.42-4.56-7.85-6.87-16.53-6.93-26.03-.06-9.51,2.14-18.18,6.6-26.02,4.46-7.84,10.58-14.09,18.36-18.76,7.78-4.67,16.38-7.03,25.8-7.09,9.42-.06,17.92,1.99,25.48,6.15,7.56,4.16,13.49,9.9,17.78,17.2,4.29,7.31,6.46,15.44,6.52,24.41.01,2.31-.07,4.45-.26,6.42-.19,1.97-.48,3.5-.88,4.59l-71.48.45c.56,3.8,2.07,7.25,4.51,10.36,2.44,3.11,5.62,5.6,9.54,7.48,3.92,1.88,8.3,2.8,13.14,2.77,5.38-.03,10.26-1.05,14.62-3.05,4.36-2,8.22-4.5,11.56-7.51l13.64,16.82c-3.74,4.37-9.27,8.24-16.59,11.62-7.32,3.37-15.62,5.09-24.91,5.15ZM1664.6,2777.08c-.7-4.2-2.04-7.8-4.01-10.77-1.97-2.97-4.51-5.3-7.62-6.98-3.11-1.68-6.61-2.5-10.52-2.48-4.17.03-7.87.9-11.09,2.62-3.22,1.72-5.87,4.08-7.93,7.08-2.07,3-3.63,6.61-4.68,10.83l45.84-.29Z"/>
  </g>
  <g>
    <path class="cls-1" d="M1632.26,1480.19c3.78,19.77,2.97,39.12-5.08,56.96-4.5,9.97-9.17,19.28-16.56,27.26-21.2,22.9-37.26,25.89-64.82,35.21-2.7.91-6.34,1.11-8.77-.21-12.49-6.82-22.09-16.53-31.78-26.73-12.02-12.66-20.74-26.47-27.98-42.68-12.11-27.14-15.65-57.21-12.03-86.63.96-7.79,1.64-14.9,4.43-22.51l41.43-14.14,8.05-69.85c.44-3.79,7.17-5.32,10-4.46,3.74,1.14,6.07,4.95,5.56,9.44l-4.49,39.58c-.74,6.53-2.06,14.15-1.15,20.63,2.32,2.47,9.9,2.01,11.81-1.18,3.5-5.84,5.45-11.84,8.28-17.95l18.22-39.35c1.94-4.18,6.57-5.5,10.16-4.28,2.96,1.01,6.74,5.67,4.95,9.68l-23.98,53.54c-.63,1.4,1.64,2.88,2.93,3.19,18.24,4.3,34.21,13.64,46.72,27.66,11.96,13.41,20.6,28.53,24.1,46.8Z"/>
    <path class="cls-1" d="M1444.5,1416.42l-166.33,3.07c-9.05.17-17.35-2.34-23.44-8.42-9.59-9.58-10.16-22.63-6.28-34.91l13.3-42.15,10.41-33.14c3.03-9.66,9.67-16.44,18.09-19.67,17.16-6.58,27.96,3.21,39.85,13.02l17.46,14.4,56.12,46.07,42.09,35.11c3.74,3.12,7.54,5.91,9.12,10.85.96,3,.74,8.08-1.42,10.44-1.69,1.85-4.48,5.24-8.95,5.32Z"/>
    <path class="cls-1" d="M1378.95,1637.3c-22.07-5.36-45.79-22.87-56.48-42.89l-43.33-2.98c-4.04-.28-7.94-.04-11.75-1.75,1.91-4.3,5.5-5.99,8.58-8.67l32.13-28.01c-2.28-31.77,9.51-61.37,33.71-82,.81-.69,1.91-1.12,2.48-.97.84.21,1.6,1.74,1.5,3-.73,9.44-2.19,18.45-1.71,27.95.68,13.59,1.39,26.76,4.74,39.98,1.94,7.65,3.65,14.7,6.66,21.79,4.78,11.27,9.48,21.97,16.43,32.14,10.23,14.98,20.99,28.61,35.19,40.02,1.59,1.28,3.48,3.97,2.21,5.71-10.06,1.19-20.16-.83-30.36-3.31Z"/>
    <path class="cls-1" d="M1497.84,1615.14c-11.86,4.67-22.77,7.76-34.46,11.66-2.37.79-6.59,1.77-8.95.28-22.08-13.97-39.41-33.15-52.57-55.77-12.78-21.98-19.03-45.84-20.34-71.29-.81-15.79,1.18-31.11,4.06-46.57.37-1.97,2.01-5.11,3.88-5.74,13.22-4.43,25.61-8.96,38.98-12.66.81,3.33.36,6.26.01,9.43-5.79,53.66,5.06,101.13,41.13,142.47,6.19,7.1,11.45,13.87,19.02,19.47,3.25,2.4,6.18,4.73,9.24,8.72Z"/>
    <path class="cls-1" d="M1437.79,1359.83l-23.18-19.15-48.81-40.42c-10.61-8.79-12.52-24.68-2.7-34.47,5.55-5.53,12.53-8.75,19.24-12.63l37.36-21.59c12.05-6.96,22.15-9.94,33.81.61,3.44,3.11,5.55,6,6.4,11.01l22.39,130.83c.58,3.41-1,6.47-2.49,8.23-2.25,2.66-6.06,2.94-9.6,2.11-5.32-1.25-8.9-5.75-13.06-9.07l-19.36-15.46Z"/>
  </g>
</svg>