<?xml version="1.0" encoding="UTF-8"?>
<svg xmlns="http://www.w3.org/2000/svg" viewBox="0 0 512 512" width="512" height="512">
  <g transform="translate(75, 60) scale(0.87)">
    <path fill="#a6d16f" d="M416.35,274.92c4.08,21.33,3.2,42.19-5.48,61.43-4.85,10.75-9.89,20.79-17.86,29.4-22.87,24.7-40.19,27.92-69.91,37.97-2.91.98-6.84,1.2-9.45-.23-13.47-7.35-23.82-17.83-34.27-28.82-12.96-13.65-22.37-28.54-30.17-46.02-13.06-29.27-16.88-61.7-12.97-93.43,1.03-8.4,1.77-16.07,4.78-24.27l44.68-15.25,8.68-75.33c.47-4.09,7.73-5.74,10.78-4.81,4.04,1.23,6.54,5.34,5.99,10.18l-4.84,42.69c-.8,7.04-2.22,15.26-1.24,22.24,2.5,2.67,10.67,2.17,12.74-1.27,3.78-6.29,5.87-12.76,8.93-19.36l19.64-42.43c2.09-4.51,7.09-5.93,10.96-4.61,3.19,1.09,7.27,6.11,5.34,10.44l-25.86,57.74c-.67,1.51,1.77,3.11,3.16,3.44,19.67,4.64,36.89,14.71,50.39,29.83,12.9,14.46,22.22,30.76,25.99,50.48Z"/>
    <path fill="#a6d16f" d="M213.86,206.14l-179.38,3.31c-9.76.18-18.71-2.52-25.28-9.08-10.35-10.33-10.96-24.4-6.78-37.64l14.34-45.45,11.22-35.74c3.27-10.42,10.43-17.73,19.51-21.21,18.51-7.09,30.15,3.46,42.98,14.05l18.83,15.53,60.52,49.68,45.39,37.87c4.04,3.37,8.13,6.38,9.83,11.7,1.03,3.24.8,8.71-1.54,11.26-1.83,1.99-4.83,5.65-9.66,5.74Z"/>
    <path fill="#a6d16f" d="M143.17,444.36c-23.8-5.78-49.38-24.67-60.91-46.26l-46.73-3.22c-4.35-.3-8.56-.04-12.67-1.89,2.06-4.64,5.93-6.46,9.25-9.36l34.65-30.21c-2.46-34.26,10.25-66.18,36.36-88.43.88-.75,2.06-1.21,2.68-1.05.9.23,1.73,1.88,1.62,3.23-.79,10.18-2.36,19.9-1.85,30.15.73,14.65,1.5,28.86,5.11,43.11,2.09,8.25,3.94,15.85,7.18,23.5,5.16,12.16,10.23,23.69,17.71,34.66,11.03,16.16,22.63,30.85,37.95,43.16,1.71,1.38,3.75,4.28,2.38,6.16-10.85,1.28-21.74-.9-32.74-3.57Z"/>
    <path fill="#a6d16f" d="M271.39,420.46c-12.8,5.04-24.56,8.37-37.16,12.57-2.56.85-7.11,1.91-9.65.3-23.81-15.07-42.5-35.75-56.69-60.15-13.78-23.7-20.52-49.43-21.93-76.88-.88-17.03,1.27-33.55,4.38-50.22.4-2.12,2.17-5.51,4.18-6.19,14.26-4.77,27.62-9.67,42.03-13.66.88,3.59.38,6.75.02,10.17-6.24,57.87,5.46,109.07,44.35,153.65,6.68,7.65,12.34,14.95,20.51,20.99,3.5,2.59,6.67,5.1,9.97,9.41Z"/>
    <path fill="#a6d16f" d="M206.62,145.11l-25-20.65-52.64-43.6c-11.44-9.48-13.51-26.61-2.92-37.17,5.99-5.97,13.51-9.44,20.75-13.62l40.3-23.28c12.99-7.51,23.89-10.72,36.46.66,3.71,3.36,5.98,6.48,6.9,11.88l24.15,141.09c.63,3.68-1.08,6.97-2.69,8.87-2.43,2.87-6.54,3.17-10.36,2.28-5.74-1.34-9.6-6.2-14.09-9.78l-20.88-16.67Z"/>
  </g>
</svg>
